<!DOCTYPE svg PUBLIC "-//W3C//DTD SVG 1.1//EN" "http://www.w3.org/Graphics/SVG/1.1/DTD/svg11.dtd">
<!-- Uploaded to: SVG Repo, www.svgrepo.com, Transformed by: SVG Repo Mixer Tools -->
<svg fill="#fefefe" height="800px" width="800px" version="1.1" id="Layer_1" xmlns="http://www.w3.org/2000/svg" xmlns:xlink="http://www.w3.org/1999/xlink" viewBox="-2.4 -2.4 28.80 28.80" xml:space="preserve" stroke="#fefefe">
<g id="SVGRepo_bgCarrier" stroke-width="0"/>
<g id="SVGRepo_tracerCarrier" stroke-linecap="round" stroke-linejoin="round"/>
<g id="SVGRepo_iconCarrier"> <polygon points="12,17 11,17 11,15 9,15 9,13 21,13 21,11 9,11 9,9 11,9 11,7 12,7 12,5 9,5 9,7 7,7 7,9 5,9 5,10 4,10 4,11 3,11 3,13 4,13 4,14 5,14 5,15 7,15 7,17 9,17 9,19 12,19 "/> </g>
</svg>